<?xml version="1.0" encoding="UTF-8" standalone="no"?>
<!DOCTYPE svg PUBLIC "-//W3C//DTD SVG 1.1//EN"
 "http://www.w3.org/Graphics/SVG/1.1/DTD/svg11.dtd">
<!-- Generated by graphviz version 8.0.4 (20230421.1958)
 -->
<!-- Pages: 1 -->
<svg width="3554pt" height="548pt"
 viewBox="0.00 0.00 3553.75 548.00" xmlns="http://www.w3.org/2000/svg" xmlns:xlink="http://www.w3.org/1999/xlink">
<g id="graph0" class="graph" transform="scale(1 1) rotate(0) translate(4 544)">
<polygon fill="white" stroke="none" points="-4,4 -4,-544 3549.75,-544 3549.75,4 -4,4"/>
<!-- [root] aws_cloudwatch_log_group.health_test_main (expand) -->
<g id="node1" class="node">
<title>[root] aws_cloudwatch_log_group.health_test_main (expand)</title>
<polygon fill="none" stroke="black" points="3068.25,-108 2803.25,-108 2803.25,-72 3068.25,-72 3068.25,-108"/>
<text text-anchor="middle" x="2935.75" y="-83.83" font-family="Times,serif" font-size="14.00">aws_cloudwatch_log_group.health_test_main</text>
</g>
<!-- [root] provider[&quot;registry.terraform.io/hashicorp/aws&quot;] -->
<g id="node29" class="node">
<title>[root] provider[&quot;registry.terraform.io/hashicorp/aws&quot;]</title>
<polygon fill="none" stroke="black" points="1455.75,-36 1209.29,-18 1455.75,0 1702.21,-18 1455.75,-36"/>
<text text-anchor="middle" x="1455.75" y="-11.82" font-family="Times,serif" font-size="14.00">provider[&quot;registry.terraform.io/hashicorp/aws&quot;]</text>
</g>
<!-- [root] aws_cloudwatch_log_group.health_test_main (expand)&#45;&gt;[root] provider[&quot;registry.terraform.io/hashicorp/aws&quot;] -->
<g id="edge1" class="edge">
<title>[root] aws_cloudwatch_log_group.health_test_main (expand)&#45;&gt;[root] provider[&quot;registry.terraform.io/hashicorp/aws&quot;]</title>
<path fill="none" stroke="black" d="M2802.78,-82.71C2529.08,-69.77 1903.94,-40.2 1611.71,-26.38"/>
<polygon fill="black" stroke="black" points="1612.18,-22.85 1602.03,-25.87 1611.85,-29.84 1612.18,-22.85"/>
</g>
<!-- [root] aws_eip.public_health_test_main_0_nat (expand) -->
<g id="node2" class="node">
<title>[root] aws_eip.public_health_test_main_0_nat (expand)</title>
<polygon fill="none" stroke="black" points="1760.88,-180 1526.62,-180 1526.62,-144 1760.88,-144 1760.88,-180"/>
<text text-anchor="middle" x="1643.75" y="-155.82" font-family="Times,serif" font-size="14.00">aws_eip.public_health_test_main_0_nat</text>
</g>
<!-- [root] aws_eip.public_health_test_main_0_nat (expand)&#45;&gt;[root] provider[&quot;registry.terraform.io/hashicorp/aws&quot;] -->
<g id="edge2" class="edge">
<title>[root] aws_eip.public_health_test_main_0_nat (expand)&#45;&gt;[root] provider[&quot;registry.terraform.io/hashicorp/aws&quot;]</title>
<path fill="none" stroke="black" d="M1620.7,-143.59C1586.57,-117.81 1522.6,-69.49 1485.15,-41.2"/>
<polygon fill="black" stroke="black" points="1487.77,-38.04 1477.68,-34.81 1483.55,-43.63 1487.77,-38.04"/>
</g>
<!-- [root] aws_eip.public_health_test_main_1_nat (expand) -->
<g id="node3" class="node">
<title>[root] aws_eip.public_health_test_main_1_nat (expand)</title>
<polygon fill="none" stroke="black" points="1075.88,-108 841.62,-108 841.62,-72 1075.88,-72 1075.88,-108"/>
<text text-anchor="middle" x="958.75" y="-83.83" font-family="Times,serif" font-size="14.00">aws_eip.public_health_test_main_1_nat</text>
</g>
<!-- [root] aws_eip.public_health_test_main_1_nat (expand)&#45;&gt;[root] provider[&quot;registry.terraform.io/hashicorp/aws&quot;] -->
<g id="edge3" class="edge">
<title>[root] aws_eip.public_health_test_main_1_nat (expand)&#45;&gt;[root] provider[&quot;registry.terraform.io/hashicorp/aws&quot;]</title>
<path fill="none" stroke="black" d="M1076.22,-72.46C1163.98,-60.09 1282.28,-43.43 1363.34,-32.02"/>
<polygon fill="black" stroke="black" points="1363.62,-35.37 1373.03,-30.51 1362.64,-28.44 1363.62,-35.37"/>
</g>
<!-- [root] aws_eks_cluster.health_test_main (expand) -->
<g id="node4" class="node">
<title>[root] aws_eks_cluster.health_test_main (expand)</title>
<polygon fill="none" stroke="black" points="745,-324 544.5,-324 544.5,-288 745,-288 745,-324"/>
<text text-anchor="middle" x="644.75" y="-299.82" font-family="Times,serif" font-size="14.00">aws_eks_cluster.health_test_main</text>
</g>
<!-- [root] aws_iam_role_policy_attachment.attach_eks_cluster_policy (expand) -->
<g id="node9" class="node">
<title>[root] aws_iam_role_policy_attachment.attach_eks_cluster_policy (expand)</title>
<polygon fill="none" stroke="black" points="595.62,-252 251.88,-252 251.88,-216 595.62,-216 595.62,-252"/>
<text text-anchor="middle" x="423.75" y="-227.82" font-family="Times,serif" font-size="14.00">aws_iam_role_policy_attachment.attach_eks_cluster_policy</text>
</g>
<!-- [root] aws_eks_cluster.health_test_main (expand)&#45;&gt;[root] aws_iam_role_policy_attachment.attach_eks_cluster_policy (expand) -->
<g id="edge4" class="edge">
<title>[root] aws_eks_cluster.health_test_main (expand)&#45;&gt;[root] aws_iam_role_policy_attachment.attach_eks_cluster_policy (expand)</title>
<path fill="none" stroke="black" d="M589.55,-287.52C558.98,-277.83 520.8,-265.74 488.79,-255.6"/>
<polygon fill="black" stroke="black" points="490.22,-252.06 479.63,-252.38 488.1,-258.74 490.22,-252.06"/>
</g>
<!-- [root] aws_subnet.private_health_test_main_0 (expand) -->
<g id="node24" class="node">
<title>[root] aws_subnet.private_health_test_main_0 (expand)</title>
<polygon fill="none" stroke="black" points="1897.5,-252 1664,-252 1664,-216 1897.5,-216 1897.5,-252"/>
<text text-anchor="middle" x="1780.75" y="-227.82" font-family="Times,serif" font-size="14.00">aws_subnet.private_health_test_main_0</text>
</g>
<!-- [root] aws_eks_cluster.health_test_main (expand)&#45;&gt;[root] aws_subnet.private_health_test_main_0 (expand) -->
<g id="edge5" class="edge">
<title>[root] aws_eks_cluster.health_test_main (expand)&#45;&gt;[root] aws_subnet.private_health_test_main_0 (expand)</title>
<path fill="none" stroke="black" d="M745.4,-288.98C748.55,-288.63 751.67,-288.3 754.75,-288 1151.87,-249.47 1254.22,-286.1 1651.75,-252 1652.12,-251.97 1652.49,-251.94 1652.86,-251.9"/>
<polygon fill="black" stroke="black" points="1653.1,-255.3 1662.73,-250.89 1652.45,-248.33 1653.1,-255.3"/>
</g>
<!-- [root] aws_subnet.private_health_test_main_1 (expand) -->
<g id="node25" class="node">
<title>[root] aws_subnet.private_health_test_main_1 (expand)</title>
<polygon fill="none" stroke="black" points="233.5,-252 0,-252 0,-216 233.5,-216 233.5,-252"/>
<text text-anchor="middle" x="116.75" y="-227.82" font-family="Times,serif" font-size="14.00">aws_subnet.private_health_test_main_1</text>
</g>
<!-- [root] aws_eks_cluster.health_test_main (expand)&#45;&gt;[root] aws_subnet.private_health_test_main_1 (expand) -->
<g id="edge6" class="edge">
<title>[root] aws_eks_cluster.health_test_main (expand)&#45;&gt;[root] aws_subnet.private_health_test_main_1 (expand)</title>
<path fill="none" stroke="black" d="M544.1,-289.18C541.29,-288.78 538.5,-288.38 535.75,-288 409.23,-270.37 374.68,-268.84 244.56,-252.22"/>
<polygon fill="black" stroke="black" points="245.14,-248.64 234.78,-250.84 244.25,-255.58 245.14,-248.64"/>
</g>
<!-- [root] aws_subnet.public_health_test_main_0 (expand) -->
<g id="node26" class="node">
<title>[root] aws_subnet.public_health_test_main_0 (expand)</title>
<polygon fill="none" stroke="black" points="1508.62,-180 1278.88,-180 1278.88,-144 1508.62,-144 1508.62,-180"/>
<text text-anchor="middle" x="1393.75" y="-155.82" font-family="Times,serif" font-size="14.00">aws_subnet.public_health_test_main_0</text>
</g>
<!-- [root] aws_eks_cluster.health_test_main (expand)&#45;&gt;[root] aws_subnet.public_health_test_main_0 (expand) -->
<g id="edge7" class="edge">
<title>[root] aws_eks_cluster.health_test_main (expand)&#45;&gt;[root] aws_subnet.public_health_test_main_0 (expand)</title>
<path fill="none" stroke="black" d="M745.49,-288.65C794.35,-279.68 853.61,-267.27 905.75,-252 948.29,-239.55 955.81,-227 998.75,-216 1113.12,-186.71 1147.41,-195.7 1267.82,-180.22"/>
<polygon fill="black" stroke="black" points="1268.12,-183.58 1277.57,-178.81 1267.2,-176.64 1268.12,-183.58"/>
</g>
<!-- [root] aws_subnet.public_health_test_main_1 (expand) -->
<g id="node27" class="node">
<title>[root] aws_subnet.public_health_test_main_1 (expand)</title>
<polygon fill="none" stroke="black" points="1010.62,-180 780.88,-180 780.88,-144 1010.62,-144 1010.62,-180"/>
<text text-anchor="middle" x="895.75" y="-155.82" font-family="Times,serif" font-size="14.00">aws_subnet.public_health_test_main_1</text>
</g>
<!-- [root] aws_eks_cluster.health_test_main (expand)&#45;&gt;[root] aws_subnet.public_health_test_main_1 (expand) -->
<g id="edge8" class="edge">
<title>[root] aws_eks_cluster.health_test_main (expand)&#45;&gt;[root] aws_subnet.public_health_test_main_1 (expand)</title>
<path fill="none" stroke="black" d="M745.4,-288.36C806.62,-277.28 874.9,-262.83 884.75,-252 899.46,-235.83 901.34,-210.61 900.04,-191.15"/>
<polygon fill="black" stroke="black" points="903.45,-191.07 898.98,-181.46 896.49,-191.76 903.45,-191.07"/>
</g>
<!-- [root] aws_eks_node_group.health_test_main_private_app_node_group (expand) -->
<g id="node5" class="node">
<title>[root] aws_eks_node_group.health_test_main_private_app_node_group (expand)</title>
<polygon fill="none" stroke="black" points="2243.5,-396 1872,-396 1872,-360 2243.5,-360 2243.5,-396"/>
<text text-anchor="middle" x="2057.75" y="-371.82" font-family="Times,serif" font-size="14.00">aws_eks_node_group.health_test_main_private_app_node_group</text>
</g>
<!-- [root] aws_eks_node_group.health_test_main_private_app_node_group (expand)&#45;&gt;[root] aws_eks_cluster.health_test_main (expand) -->
<g id="edge9" class="edge">
<title>[root] aws_eks_node_group.health_test_main_private_app_node_group (expand)&#45;&gt;[root] aws_eks_cluster.health_test_main (expand)</title>
<path fill="none" stroke="black" d="M1871.72,-363.3C1852.49,-362.09 1833.23,-360.96 1814.75,-360 1347.56,-335.73 1225.9,-367.59 756.2,-324.06"/>
<polygon fill="black" stroke="black" points="756.68,-320.49 746.4,-323.05 756.03,-327.46 756.68,-320.49"/>
</g>
<!-- [root] aws_iam_role_policy_attachment.attach_eks_cni_policy (expand) -->
<g id="node10" class="node">
<title>[root] aws_iam_role_policy_attachment.attach_eks_cni_policy (expand)</title>
<polygon fill="none" stroke="black" points="3007.88,-324 2683.62,-324 2683.62,-288 3007.88,-288 3007.88,-324"/>
<text text-anchor="middle" x="2845.75" y="-299.82" font-family="Times,serif" font-size="14.00">aws_iam_role_policy_attachment.attach_eks_cni_policy</text>
</g>
<!-- [root] aws_eks_node_group.health_test_main_private_app_node_group (expand)&#45;&gt;[root] aws_iam_role_policy_attachment.attach_eks_cni_policy (expand) -->
<g id="edge10" class="edge">
<title>[root] aws_eks_node_group.health_test_main_private_app_node_group (expand)&#45;&gt;[root] aws_iam_role_policy_attachment.attach_eks_cni_policy (expand)</title>
<path fill="none" stroke="black" d="M2243.77,-361.67C2363.37,-351.66 2522.44,-338.06 2672.5,-324.2"/>
<polygon fill="black" stroke="black" points="2672.65,-327.61 2682.29,-323.2 2672.01,-320.64 2672.65,-327.61"/>
</g>
<!-- [root] aws_iam_role_policy_attachment.attach_eks_ec2_container_registry_read_only_policy (expand) -->
<g id="node11" class="node">
<title>[root] aws_iam_role_policy_attachment.attach_eks_ec2_container_registry_read_only_policy (expand)</title>
<polygon fill="none" stroke="black" points="3517.88,-324 3025.62,-324 3025.62,-288 3517.88,-288 3517.88,-324"/>
<text text-anchor="middle" x="3271.75" y="-299.82" font-family="Times,serif" font-size="14.00">aws_iam_role_policy_attachment.attach_eks_ec2_container_registry_read_only_policy</text>
</g>
<!-- [root] aws_eks_node_group.health_test_main_private_app_node_group (expand)&#45;&gt;[root] aws_iam_role_policy_attachment.attach_eks_ec2_container_registry_read_only_policy (expand) -->
<g id="edge11" class="edge">
<title>[root] aws_eks_node_group.health_test_main_private_app_node_group (expand)&#45;&gt;[root] aws_iam_role_policy_attachment.attach_eks_ec2_container_registry_read_only_policy (expand)</title>
<path fill="none" stroke="black" d="M2243.84,-361.68C2252.25,-361.09 2260.59,-360.52 2268.75,-360 2597.32,-338.86 2682.64,-342.98 3014.54,-324.12"/>
<polygon fill="black" stroke="black" points="3014.66,-327.56 3024.44,-323.5 3014.26,-320.57 3014.66,-327.56"/>
</g>
<!-- [root] aws_iam_role_policy_attachment.attach_eks_ssm_managed_instance_core_policy (expand) -->
<g id="node12" class="node">
<title>[root] aws_iam_role_policy_attachment.attach_eks_ssm_managed_instance_core_policy (expand)</title>
<polygon fill="none" stroke="black" points="2275.12,-324 1808.38,-324 1808.38,-288 2275.12,-288 2275.12,-324"/>
<text text-anchor="middle" x="2041.75" y="-299.82" font-family="Times,serif" font-size="14.00">aws_iam_role_policy_attachment.attach_eks_ssm_managed_instance_core_policy</text>
</g>
<!-- [root] aws_eks_node_group.health_test_main_private_app_node_group (expand)&#45;&gt;[root] aws_iam_role_policy_attachment.attach_eks_ssm_managed_instance_core_policy (expand) -->
<g id="edge12" class="edge">
<title>[root] aws_eks_node_group.health_test_main_private_app_node_group (expand)&#45;&gt;[root] aws_iam_role_policy_attachment.attach_eks_ssm_managed_instance_core_policy (expand)</title>
<path fill="none" stroke="black" d="M2053.79,-359.7C2052.07,-352.15 2050.01,-343.12 2048.08,-334.68"/>
<polygon fill="black" stroke="black" points="2051.3,-334.07 2045.66,-325.1 2044.48,-335.63 2051.3,-334.07"/>
</g>
<!-- [root] aws_iam_role_policy_attachment.attach_eks_workernode_policy (expand) -->
<g id="node13" class="node">
<title>[root] aws_iam_role_policy_attachment.attach_eks_workernode_policy (expand)</title>
<polygon fill="none" stroke="black" points="2665.88,-324 2293.62,-324 2293.62,-288 2665.88,-288 2665.88,-324"/>
<text text-anchor="middle" x="2479.75" y="-299.82" font-family="Times,serif" font-size="14.00">aws_iam_role_policy_attachment.attach_eks_workernode_policy</text>
</g>
<!-- [root] aws_eks_node_group.health_test_main_private_app_node_group (expand)&#45;&gt;[root] aws_iam_role_policy_attachment.attach_eks_workernode_policy (expand) -->
<g id="edge13" class="edge">
<title>[root] aws_eks_node_group.health_test_main_private_app_node_group (expand)&#45;&gt;[root] aws_iam_role_policy_attachment.attach_eks_workernode_policy (expand)</title>
<path fill="none" stroke="black" d="M2163.15,-359.52C2224.19,-349.39 2301.12,-336.63 2363.86,-326.22"/>
<polygon fill="black" stroke="black" points="2364.3,-329.53 2373.6,-324.44 2363.16,-322.63 2364.3,-329.53"/>
</g>
<!-- [root] aws_eks_node_group.health_test_main_public_node_group (expand) -->
<g id="node6" class="node">
<title>[root] aws_eks_node_group.health_test_main_public_node_group (expand)</title>
<polygon fill="none" stroke="black" points="2619.5,-396 2278,-396 2278,-360 2619.5,-360 2619.5,-396"/>
<text text-anchor="middle" x="2448.75" y="-371.82" font-family="Times,serif" font-size="14.00">aws_eks_node_group.health_test_main_public_node_group</text>
</g>
<!-- [root] aws_eks_node_group.health_test_main_public_node_group (expand)&#45;&gt;[root] aws_eks_cluster.health_test_main (expand) -->
<g id="edge14" class="edge">
<title>[root] aws_eks_node_group.health_test_main_public_node_group (expand)&#45;&gt;[root] aws_eks_cluster.health_test_main (expand)</title>
<path fill="none" stroke="black" d="M2277.76,-361.54C2269.31,-360.97 2260.93,-360.45 2252.75,-360 1591.37,-323.41 1419.94,-382.34 756.19,-324.04"/>
<polygon fill="black" stroke="black" points="756.66,-320.48 746.39,-323.09 756.05,-327.45 756.66,-320.48"/>
</g>
<!-- [root] aws_eks_node_group.health_test_main_public_node_group (expand)&#45;&gt;[root] aws_iam_role_policy_attachment.attach_eks_cni_policy (expand) -->
<g id="edge15" class="edge">
<title>[root] aws_eks_node_group.health_test_main_public_node_group (expand)&#45;&gt;[root] aws_iam_role_policy_attachment.attach_eks_cni_policy (expand)</title>
<path fill="none" stroke="black" d="M2547.91,-359.52C2605.21,-349.41 2677.4,-336.68 2736.36,-326.29"/>
<polygon fill="black" stroke="black" points="2736.59,-329.63 2745.83,-324.44 2735.37,-322.73 2736.59,-329.63"/>
</g>
<!-- [root] aws_eks_node_group.health_test_main_public_node_group (expand)&#45;&gt;[root] aws_iam_role_policy_attachment.attach_eks_ec2_container_registry_read_only_policy (expand) -->
<g id="edge16" class="edge">
<title>[root] aws_eks_node_group.health_test_main_public_node_group (expand)&#45;&gt;[root] aws_iam_role_policy_attachment.attach_eks_ec2_container_registry_read_only_policy (expand)</title>
<path fill="none" stroke="black" d="M2619.78,-362.45C2746.34,-351.69 2919.67,-336.95 3055.8,-325.37"/>
<polygon fill="black" stroke="black" points="3055.7,-328.8 3065.36,-324.47 3055.1,-321.83 3055.7,-328.8"/>
</g>
<!-- [root] aws_eks_node_group.health_test_main_public_node_group (expand)&#45;&gt;[root] aws_iam_role_policy_attachment.attach_eks_ssm_managed_instance_core_policy (expand) -->
<g id="edge17" class="edge">
<title>[root] aws_eks_node_group.health_test_main_public_node_group (expand)&#45;&gt;[root] aws_iam_role_policy_attachment.attach_eks_ssm_managed_instance_core_policy (expand)</title>
<path fill="none" stroke="black" d="M2347.1,-359.52C2288.35,-349.41 2214.34,-336.68 2153.9,-326.29"/>
<polygon fill="black" stroke="black" points="2154.61,-322.69 2144.16,-324.44 2153.43,-329.59 2154.61,-322.69"/>
</g>
<!-- [root] aws_eks_node_group.health_test_main_public_node_group (expand)&#45;&gt;[root] aws_iam_role_policy_attachment.attach_eks_workernode_policy (expand) -->
<g id="edge18" class="edge">
<title>[root] aws_eks_node_group.health_test_main_public_node_group (expand)&#45;&gt;[root] aws_iam_role_policy_attachment.attach_eks_workernode_policy (expand)</title>
<path fill="none" stroke="black" d="M2456.41,-359.7C2459.83,-351.98 2463.93,-342.71 2467.74,-334.11"/>
<polygon fill="black" stroke="black" points="2471.33,-335.67 2472.18,-325.1 2464.93,-332.83 2471.33,-335.67"/>
</g>
<!-- [root] aws_iam_role.eks_node_role (expand) -->
<g id="node7" class="node">
<title>[root] aws_iam_role.eks_node_role (expand)</title>
<polygon fill="none" stroke="black" points="2567.25,-252 2392.25,-252 2392.25,-216 2567.25,-216 2567.25,-252"/>
<text text-anchor="middle" x="2479.75" y="-227.82" font-family="Times,serif" font-size="14.00">aws_iam_role.eks_node_role</text>
</g>
<!-- [root] aws_iam_role.eks_node_role (expand)&#45;&gt;[root] provider[&quot;registry.terraform.io/hashicorp/aws&quot;] -->
<g id="edge19" class="edge">
<title>[root] aws_iam_role.eks_node_role (expand)&#45;&gt;[root] provider[&quot;registry.terraform.io/hashicorp/aws&quot;]</title>
<path fill="none" stroke="black" d="M2396.39,-215.58C2200.47,-174.63 1713.36,-72.84 1528.49,-34.2"/>
<polygon fill="black" stroke="black" points="1529.31,-30.59 1518.8,-31.97 1527.87,-37.44 1529.31,-30.59"/>
</g>
<!-- [root] aws_iam_role.eks_service_role (expand) -->
<g id="node8" class="node">
<title>[root] aws_iam_role.eks_service_role (expand)</title>
<polygon fill="none" stroke="black" points="756.25,-108 569.25,-108 569.25,-72 756.25,-72 756.25,-108"/>
<text text-anchor="middle" x="662.75" y="-83.83" font-family="Times,serif" font-size="14.00">aws_iam_role.eks_service_role</text>
</g>
<!-- [root] aws_iam_role.eks_service_role (expand)&#45;&gt;[root] provider[&quot;registry.terraform.io/hashicorp/aws&quot;] -->
<g id="edge20" class="edge">
<title>[root] aws_iam_role.eks_service_role (expand)&#45;&gt;[root] provider[&quot;registry.terraform.io/hashicorp/aws&quot;]</title>
<path fill="none" stroke="black" d="M756.7,-79.35C781.43,-76.88 808.09,-74.28 832.75,-72 1005.52,-56.01 1205.42,-39.33 1331.21,-29.05"/>
<polygon fill="black" stroke="black" points="1331.34,-32.47 1341.02,-28.17 1330.77,-25.49 1331.34,-32.47"/>
</g>
<!-- [root] aws_iam_role_policy_attachment.attach_eks_cluster_policy (expand)&#45;&gt;[root] aws_iam_role.eks_service_role (expand) -->
<g id="edge21" class="edge">
<title>[root] aws_iam_role_policy_attachment.attach_eks_cluster_policy (expand)&#45;&gt;[root] aws_iam_role.eks_service_role (expand)</title>
<path fill="none" stroke="black" d="M453.06,-215.59C496.09,-190.02 576.42,-142.29 624.19,-113.91"/>
<polygon fill="black" stroke="black" points="625.77,-116.45 632.58,-108.33 622.19,-110.43 625.77,-116.45"/>
</g>
<!-- [root] aws_iam_role_policy_attachment.attach_eks_cni_policy (expand)&#45;&gt;[root] aws_iam_role.eks_node_role (expand) -->
<g id="edge22" class="edge">
<title>[root] aws_iam_role_policy_attachment.attach_eks_cni_policy (expand)&#45;&gt;[root] aws_iam_role.eks_node_role (expand)</title>
<path fill="none" stroke="black" d="M2754.34,-287.52C2700.74,-277.27 2633.03,-264.32 2578.25,-253.84"/>
<polygon fill="black" stroke="black" points="2578.96,-250.22 2568.48,-251.78 2577.64,-257.09 2578.96,-250.22"/>
</g>
<!-- [root] aws_iam_role_policy_attachment.attach_eks_ec2_container_registry_read_only_policy (expand)&#45;&gt;[root] aws_iam_role.eks_node_role (expand) -->
<g id="edge23" class="edge">
<title>[root] aws_iam_role_policy_attachment.attach_eks_ec2_container_registry_read_only_policy (expand)&#45;&gt;[root] aws_iam_role.eks_node_role (expand)</title>
<path fill="none" stroke="black" d="M3073.94,-287.52C2916.27,-273.58 2702.14,-254.66 2578.66,-243.74"/>
<polygon fill="black" stroke="black" points="2579,-240.17 2568.73,-242.78 2578.38,-247.14 2579,-240.17"/>
</g>
<!-- [root] aws_iam_role_policy_attachment.attach_eks_ssm_managed_instance_core_policy (expand)&#45;&gt;[root] aws_iam_role.eks_node_role (expand) -->
<g id="edge24" class="edge">
<title>[root] aws_iam_role_policy_attachment.attach_eks_ssm_managed_instance_core_policy (expand)&#45;&gt;[root] aws_iam_role.eks_node_role (expand)</title>
<path fill="none" stroke="black" d="M2151.15,-287.52C2221.74,-276.23 2312.8,-261.68 2381.15,-250.76"/>
<polygon fill="black" stroke="black" points="2381.6,-254.07 2390.92,-249.04 2380.5,-247.16 2381.6,-254.07"/>
</g>
<!-- [root] aws_iam_role_policy_attachment.attach_eks_workernode_policy (expand)&#45;&gt;[root] aws_iam_role.eks_node_role (expand) -->
<g id="edge25" class="edge">
<title>[root] aws_iam_role_policy_attachment.attach_eks_workernode_policy (expand)&#45;&gt;[root] aws_iam_role.eks_node_role (expand)</title>
<path fill="none" stroke="black" d="M2479.75,-287.7C2479.75,-280.24 2479.75,-271.32 2479.75,-262.97"/>
<polygon fill="black" stroke="black" points="2483.25,-263.1 2479.75,-253.1 2476.25,-263.1 2483.25,-263.1"/>
</g>
<!-- [root] aws_internet_gateway.health_test_main (expand) -->
<g id="node14" class="node">
<title>[root] aws_internet_gateway.health_test_main (expand)</title>
<polygon fill="none" stroke="black" points="1261.12,-180 1028.38,-180 1028.38,-144 1261.12,-144 1261.12,-180"/>
<text text-anchor="middle" x="1144.75" y="-155.82" font-family="Times,serif" font-size="14.00">aws_internet_gateway.health_test_main</text>
</g>
<!-- [root] aws_vpc.health_test_main (expand) -->
<g id="node28" class="node">
<title>[root] aws_vpc.health_test_main (expand)</title>
<polygon fill="none" stroke="black" points="1286.75,-108 1126.75,-108 1126.75,-72 1286.75,-72 1286.75,-108"/>
<text text-anchor="middle" x="1206.75" y="-83.83" font-family="Times,serif" font-size="14.00">aws_vpc.health_test_main</text>
</g>
<!-- [root] aws_internet_gateway.health_test_main (expand)&#45;&gt;[root] aws_vpc.health_test_main (expand) -->
<g id="edge26" class="edge">
<title>[root] aws_internet_gateway.health_test_main (expand)&#45;&gt;[root] aws_vpc.health_test_main (expand)</title>
<path fill="none" stroke="black" d="M1160.08,-143.7C1167.43,-135.39 1176.39,-125.28 1184.48,-116.14"/>
<polygon fill="black" stroke="black" points="1186.59,-118.91 1190.6,-109.1 1181.35,-114.27 1186.59,-118.91"/>
</g>
<!-- [root] aws_nat_gateway.public_health_test_main_0 (expand) -->
<g id="node15" class="node">
<title>[root] aws_nat_gateway.public_health_test_main_0 (expand)</title>
<polygon fill="none" stroke="black" points="1642.75,-252 1380.75,-252 1380.75,-216 1642.75,-216 1642.75,-252"/>
<text text-anchor="middle" x="1511.75" y="-227.82" font-family="Times,serif" font-size="14.00">aws_nat_gateway.public_health_test_main_0</text>
</g>
<!-- [root] aws_nat_gateway.public_health_test_main_0 (expand)&#45;&gt;[root] aws_eip.public_health_test_main_0_nat (expand) -->
<g id="edge27" class="edge">
<title>[root] aws_nat_gateway.public_health_test_main_0 (expand)&#45;&gt;[root] aws_eip.public_health_test_main_0_nat (expand)</title>
<path fill="none" stroke="black" d="M1544.72,-215.52C1561.94,-206.39 1583.2,-195.11 1601.6,-185.35"/>
<polygon fill="black" stroke="black" points="1603.01,-188.04 1610.2,-180.26 1599.73,-181.85 1603.01,-188.04"/>
</g>
<!-- [root] aws_nat_gateway.public_health_test_main_0 (expand)&#45;&gt;[root] aws_internet_gateway.health_test_main (expand) -->
<g id="edge28" class="edge">
<title>[root] aws_nat_gateway.public_health_test_main_0 (expand)&#45;&gt;[root] aws_internet_gateway.health_test_main (expand)</title>
<path fill="none" stroke="black" d="M1420.09,-215.52C1367.44,-205.48 1301.21,-192.84 1246.89,-182.48"/>
<polygon fill="black" stroke="black" points="1247.68,-178.88 1237.2,-180.44 1246.37,-185.75 1247.68,-178.88"/>
</g>
<!-- [root] aws_nat_gateway.public_health_test_main_0 (expand)&#45;&gt;[root] aws_subnet.public_health_test_main_0 (expand) -->
<g id="edge29" class="edge">
<title>[root] aws_nat_gateway.public_health_test_main_0 (expand)&#45;&gt;[root] aws_subnet.public_health_test_main_0 (expand)</title>
<path fill="none" stroke="black" d="M1482.28,-215.52C1467.1,-206.51 1448.41,-195.42 1432.12,-185.76"/>
<polygon fill="black" stroke="black" points="1434.23,-182.35 1423.85,-180.26 1430.66,-188.37 1434.23,-182.35"/>
</g>
<!-- [root] aws_nat_gateway.public_health_test_main_1 (expand) -->
<g id="node16" class="node">
<title>[root] aws_nat_gateway.public_health_test_main_1 (expand)</title>
<polygon fill="none" stroke="black" points="875.75,-252 613.75,-252 613.75,-216 875.75,-216 875.75,-252"/>
<text text-anchor="middle" x="744.75" y="-227.82" font-family="Times,serif" font-size="14.00">aws_nat_gateway.public_health_test_main_1</text>
</g>
<!-- [root] aws_nat_gateway.public_health_test_main_1 (expand)&#45;&gt;[root] aws_eip.public_health_test_main_1_nat (expand) -->
<g id="edge30" class="edge">
<title>[root] aws_nat_gateway.public_health_test_main_1 (expand)&#45;&gt;[root] aws_eip.public_health_test_main_1_nat (expand)</title>
<path fill="none" stroke="black" d="M745.24,-215.77C746.75,-195.78 752.28,-163.12 771.75,-144 788.25,-127.8 809.3,-116.48 831.3,-108.58"/>
<polygon fill="black" stroke="black" points="832.09,-111.68 840.46,-105.19 829.87,-105.04 832.09,-111.68"/>
</g>
<!-- [root] aws_nat_gateway.public_health_test_main_1 (expand)&#45;&gt;[root] aws_internet_gateway.health_test_main (expand) -->
<g id="edge31" class="edge">
<title>[root] aws_nat_gateway.public_health_test_main_1 (expand)&#45;&gt;[root] aws_internet_gateway.health_test_main (expand)</title>
<path fill="none" stroke="black" d="M844.66,-215.52C902.39,-205.41 975.13,-192.68 1034.53,-182.29"/>
<polygon fill="black" stroke="black" points="1034.83,-185.61 1044.08,-180.44 1033.63,-178.72 1034.83,-185.61"/>
</g>
<!-- [root] aws_nat_gateway.public_health_test_main_1 (expand)&#45;&gt;[root] aws_subnet.public_health_test_main_1 (expand) -->
<g id="edge32" class="edge">
<title>[root] aws_nat_gateway.public_health_test_main_1 (expand)&#45;&gt;[root] aws_subnet.public_health_test_main_1 (expand)</title>
<path fill="none" stroke="black" d="M782.46,-215.52C802.45,-206.25 827.19,-194.78 848.45,-184.93"/>
<polygon fill="black" stroke="black" points="849.65,-187.76 857.26,-180.38 846.71,-181.41 849.65,-187.76"/>
</g>
<!-- [root] aws_route_table.health_test_main_igw_route_table (expand) -->
<g id="node17" class="node">
<title>[root] aws_route_table.health_test_main_igw_route_table (expand)</title>
<polygon fill="none" stroke="black" points="1303.62,-252 1007.88,-252 1007.88,-216 1303.62,-216 1303.62,-252"/>
<text text-anchor="middle" x="1155.75" y="-227.82" font-family="Times,serif" font-size="14.00">aws_route_table.health_test_main_igw_route_table</text>
</g>
<!-- [root] aws_route_table.health_test_main_igw_route_table (expand)&#45;&gt;[root] aws_internet_gateway.health_test_main (expand) -->
<g id="edge33" class="edge">
<title>[root] aws_route_table.health_test_main_igw_route_table (expand)&#45;&gt;[root] aws_internet_gateway.health_test_main (expand)</title>
<path fill="none" stroke="black" d="M1153.03,-215.7C1151.86,-208.24 1150.46,-199.32 1149.14,-190.97"/>
<polygon fill="black" stroke="black" points="1152.45,-190.44 1147.44,-181.1 1145.53,-191.53 1152.45,-190.44"/>
</g>
<!-- [root] aws_route_table.public_health_test_main_0 (expand) -->
<g id="node18" class="node">
<title>[root] aws_route_table.public_health_test_main_0 (expand)</title>
<polygon fill="none" stroke="black" points="1752.38,-324 1497.12,-324 1497.12,-288 1752.38,-288 1752.38,-324"/>
<text text-anchor="middle" x="1624.75" y="-299.82" font-family="Times,serif" font-size="14.00">aws_route_table.public_health_test_main_0</text>
</g>
<!-- [root] aws_route_table.public_health_test_main_0 (expand)&#45;&gt;[root] aws_nat_gateway.public_health_test_main_0 (expand) -->
<g id="edge34" class="edge">
<title>[root] aws_route_table.public_health_test_main_0 (expand)&#45;&gt;[root] aws_nat_gateway.public_health_test_main_0 (expand)</title>
<path fill="none" stroke="black" d="M1596.53,-287.52C1582.13,-278.6 1564.43,-267.63 1548.93,-258.03"/>
<polygon fill="black" stroke="black" points="1550.96,-254.55 1540.61,-252.26 1547.27,-260.5 1550.96,-254.55"/>
</g>
<!-- [root] aws_route_table.public_health_test_main_1 (expand) -->
<g id="node19" class="node">
<title>[root] aws_route_table.public_health_test_main_1 (expand)</title>
<polygon fill="none" stroke="black" points="526.38,-324 271.12,-324 271.12,-288 526.38,-288 526.38,-324"/>
<text text-anchor="middle" x="398.75" y="-299.82" font-family="Times,serif" font-size="14.00">aws_route_table.public_health_test_main_1</text>
</g>
<!-- [root] aws_route_table.public_health_test_main_1 (expand)&#45;&gt;[root] aws_nat_gateway.public_health_test_main_1 (expand) -->
<g id="edge35" class="edge">
<title>[root] aws_route_table.public_health_test_main_1 (expand)&#45;&gt;[root] aws_nat_gateway.public_health_test_main_1 (expand)</title>
<path fill="none" stroke="black" d="M485.17,-287.52C534.59,-277.52 596.73,-264.95 647.81,-254.61"/>
<polygon fill="black" stroke="black" points="648.43,-257.86 657.53,-252.44 647.04,-250.99 648.43,-257.86"/>
</g>
<!-- [root] aws_route_table_association.igw_public_health_test_main_0 (expand) -->
<g id="node20" class="node">
<title>[root] aws_route_table_association.igw_public_health_test_main_0 (expand)</title>
<polygon fill="none" stroke="black" points="1479.25,-324 1130.25,-324 1130.25,-288 1479.25,-288 1479.25,-324"/>
<text text-anchor="middle" x="1304.75" y="-299.82" font-family="Times,serif" font-size="14.00">aws_route_table_association.igw_public_health_test_main_0</text>
</g>
<!-- [root] aws_route_table_association.igw_public_health_test_main_0 (expand)&#45;&gt;[root] aws_route_table.health_test_main_igw_route_table (expand) -->
<g id="edge36" class="edge">
<title>[root] aws_route_table_association.igw_public_health_test_main_0 (expand)&#45;&gt;[root] aws_route_table.health_test_main_igw_route_table (expand)</title>
<path fill="none" stroke="black" d="M1267.54,-287.52C1247.82,-278.25 1223.4,-266.78 1202.42,-256.93"/>
<polygon fill="black" stroke="black" points="1204.29,-253.47 1193.75,-252.38 1201.31,-259.8 1204.29,-253.47"/>
</g>
<!-- [root] aws_route_table_association.igw_public_health_test_main_0 (expand)&#45;&gt;[root] aws_subnet.public_health_test_main_0 (expand) -->
<g id="edge37" class="edge">
<title>[root] aws_route_table_association.igw_public_health_test_main_0 (expand)&#45;&gt;[root] aws_subnet.public_health_test_main_0 (expand)</title>
<path fill="none" stroke="black" d="M1315.66,-287.59C1331.09,-262.97 1359.4,-217.8 1377.36,-189.14"/>
<polygon fill="black" stroke="black" points="1380.68,-191.44 1383.03,-181.11 1374.75,-187.73 1380.68,-191.44"/>
</g>
<!-- [root] aws_route_table_association.igw_public_health_test_main_1 (expand) -->
<g id="node21" class="node">
<title>[root] aws_route_table_association.igw_public_health_test_main_1 (expand)</title>
<polygon fill="none" stroke="black" points="1112.25,-324 763.25,-324 763.25,-288 1112.25,-288 1112.25,-324"/>
<text text-anchor="middle" x="937.75" y="-299.82" font-family="Times,serif" font-size="14.00">aws_route_table_association.igw_public_health_test_main_1</text>
</g>
<!-- [root] aws_route_table_association.igw_public_health_test_main_1 (expand)&#45;&gt;[root] aws_route_table.health_test_main_igw_route_table (expand) -->
<g id="edge38" class="edge">
<title>[root] aws_route_table_association.igw_public_health_test_main_1 (expand)&#45;&gt;[root] aws_route_table.health_test_main_igw_route_table (expand)</title>
<path fill="none" stroke="black" d="M992.2,-287.52C1022.22,-277.88 1059.69,-265.84 1091.19,-255.73"/>
<polygon fill="black" stroke="black" points="1092.17,-258.77 1100.62,-252.38 1090.03,-252.11 1092.17,-258.77"/>
</g>
<!-- [root] aws_route_table_association.igw_public_health_test_main_1 (expand)&#45;&gt;[root] aws_subnet.public_health_test_main_1 (expand) -->
<g id="edge39" class="edge">
<title>[root] aws_route_table_association.igw_public_health_test_main_1 (expand)&#45;&gt;[root] aws_subnet.public_health_test_main_1 (expand)</title>
<path fill="none" stroke="black" d="M934.78,-287.7C931.46,-269.6 925.51,-240.45 917.75,-216 915.07,-207.55 911.59,-198.57 908.2,-190.45"/>
<polygon fill="black" stroke="black" points="911.03,-189.18 903.86,-181.38 904.6,-191.95 911.03,-189.18"/>
</g>
<!-- [root] aws_route_table_association.nat_private_health_test_main_0_0 (expand) -->
<g id="node22" class="node">
<title>[root] aws_route_table_association.nat_private_health_test_main_0_0 (expand)</title>
<polygon fill="none" stroke="black" points="1806,-396 1443.5,-396 1443.5,-360 1806,-360 1806,-396"/>
<text text-anchor="middle" x="1624.75" y="-371.82" font-family="Times,serif" font-size="14.00">aws_route_table_association.nat_private_health_test_main_0_0</text>
</g>
<!-- [root] aws_route_table_association.nat_private_health_test_main_0_0 (expand)&#45;&gt;[root] aws_route_table.public_health_test_main_0 (expand) -->
<g id="edge40" class="edge">
<title>[root] aws_route_table_association.nat_private_health_test_main_0_0 (expand)&#45;&gt;[root] aws_route_table.public_health_test_main_0 (expand)</title>
<path fill="none" stroke="black" d="M1624.75,-359.7C1624.75,-352.24 1624.75,-343.32 1624.75,-334.97"/>
<polygon fill="black" stroke="black" points="1628.25,-335.1 1624.75,-325.1 1621.25,-335.1 1628.25,-335.1"/>
</g>
<!-- [root] aws_route_table_association.nat_private_health_test_main_0_0 (expand)&#45;&gt;[root] aws_subnet.private_health_test_main_0 (expand) -->
<g id="edge41" class="edge">
<title>[root] aws_route_table_association.nat_private_health_test_main_0_0 (expand)&#45;&gt;[root] aws_subnet.private_health_test_main_0 (expand)</title>
<path fill="none" stroke="black" d="M1708,-359.59C1728.09,-351.75 1747.77,-340.4 1761.75,-324 1776.08,-307.19 1780.42,-282.21 1781.42,-262.98"/>
<polygon fill="black" stroke="black" points="1784.93,-263.24 1781.66,-253.16 1777.94,-263.08 1784.93,-263.24"/>
</g>
<!-- [root] aws_route_table_association.nat_private_health_test_main_1_1 (expand) -->
<g id="node23" class="node">
<title>[root] aws_route_table_association.nat_private_health_test_main_1_1 (expand)</title>
<polygon fill="none" stroke="black" points="580,-396 217.5,-396 217.5,-360 580,-360 580,-396"/>
<text text-anchor="middle" x="398.75" y="-371.82" font-family="Times,serif" font-size="14.00">aws_route_table_association.nat_private_health_test_main_1_1</text>
</g>
<!-- [root] aws_route_table_association.nat_private_health_test_main_1_1 (expand)&#45;&gt;[root] aws_route_table.public_health_test_main_1 (expand) -->
<g id="edge42" class="edge">
<title>[root] aws_route_table_association.nat_private_health_test_main_1_1 (expand)&#45;&gt;[root] aws_route_table.public_health_test_main_1 (expand)</title>
<path fill="none" stroke="black" d="M398.75,-359.7C398.75,-352.24 398.75,-343.32 398.75,-334.97"/>
<polygon fill="black" stroke="black" points="402.25,-335.1 398.75,-325.1 395.25,-335.1 402.25,-335.1"/>
</g>
<!-- [root] aws_route_table_association.nat_private_health_test_main_1_1 (expand)&#45;&gt;[root] aws_subnet.private_health_test_main_1 (expand) -->
<g id="edge43" class="edge">
<title>[root] aws_route_table_association.nat_private_health_test_main_1_1 (expand)&#45;&gt;[root] aws_subnet.private_health_test_main_1 (expand)</title>
<path fill="none" stroke="black" d="M347.06,-359.52C320.99,-350.08 289.17,-337.58 261.75,-324 222.22,-304.42 179.47,-277.4 150.7,-258.28"/>
<polygon fill="black" stroke="black" points="153.13,-255.03 142.88,-252.37 149.24,-260.84 153.13,-255.03"/>
</g>
<!-- [root] aws_subnet.private_health_test_main_0 (expand)&#45;&gt;[root] aws_vpc.health_test_main (expand) -->
<g id="edge44" class="edge">
<title>[root] aws_subnet.private_health_test_main_0 (expand)&#45;&gt;[root] aws_vpc.health_test_main (expand)</title>
<path fill="none" stroke="black" d="M1784.34,-215.5C1787.37,-195.25 1788.62,-162.33 1769.75,-144 1736.65,-111.85 1448.57,-98.34 1297.84,-93.43"/>
<polygon fill="black" stroke="black" points="1298.34,-89.91 1288.23,-93.09 1298.11,-96.91 1298.34,-89.91"/>
</g>
<!-- [root] aws_subnet.private_health_test_main_1 (expand)&#45;&gt;[root] aws_vpc.health_test_main (expand) -->
<g id="edge45" class="edge">
<title>[root] aws_subnet.private_health_test_main_1 (expand)&#45;&gt;[root] aws_vpc.health_test_main (expand)</title>
<path fill="none" stroke="black" d="M233.79,-216.36C364.76,-197.91 583.3,-167.64 771.75,-144 910.69,-126.57 945.84,-125.66 1084.75,-108 1094.75,-106.73 1105.2,-105.35 1115.6,-103.94"/>
<polygon fill="black" stroke="black" points="1115.96,-107.29 1125.4,-102.48 1115.02,-100.36 1115.96,-107.29"/>
</g>
<!-- [root] aws_subnet.public_health_test_main_0 (expand)&#45;&gt;[root] aws_vpc.health_test_main (expand) -->
<g id="edge46" class="edge">
<title>[root] aws_subnet.public_health_test_main_0 (expand)&#45;&gt;[root] aws_vpc.health_test_main (expand)</title>
<path fill="none" stroke="black" d="M1347.04,-143.52C1321.62,-134 1289.99,-122.16 1263.19,-112.13"/>
<polygon fill="black" stroke="black" points="1264.78,-108.61 1254.18,-108.38 1262.32,-115.17 1264.78,-108.61"/>
</g>
<!-- [root] aws_subnet.public_health_test_main_1 (expand)&#45;&gt;[root] aws_vpc.health_test_main (expand) -->
<g id="edge47" class="edge">
<title>[root] aws_subnet.public_health_test_main_1 (expand)&#45;&gt;[root] aws_vpc.health_test_main (expand)</title>
<path fill="none" stroke="black" d="M973.43,-143.52C1017.57,-133.58 1073,-121.1 1118.75,-110.81"/>
<polygon fill="black" stroke="black" points="1119.27,-114.05 1128.26,-108.44 1117.73,-107.22 1119.27,-114.05"/>
</g>
<!-- [root] aws_vpc.health_test_main (expand)&#45;&gt;[root] provider[&quot;registry.terraform.io/hashicorp/aws&quot;] -->
<g id="edge48" class="edge">
<title>[root] aws_vpc.health_test_main (expand)&#45;&gt;[root] provider[&quot;registry.terraform.io/hashicorp/aws&quot;]</title>
<path fill="none" stroke="black" d="M1268.94,-71.52C1307.78,-60.6 1357.53,-46.61 1395.92,-35.82"/>
<polygon fill="black" stroke="black" points="1396.74,-38.94 1405.42,-32.87 1394.85,-32.2 1396.74,-38.94"/>
</g>
<!-- [root] output.eks_endpoint (expand) -->
<g id="node30" class="node">
<title>[root] output.eks_endpoint (expand)</title>
<ellipse fill="none" stroke="black" cx="1012.75" cy="-450" rx="135.16" ry="18"/>
<text text-anchor="middle" x="1012.75" y="-443.82" font-family="Times,serif" font-size="14.00">[root] output.eks_endpoint (expand)</text>
</g>
<!-- [root] output.eks_endpoint (expand)&#45;&gt;[root] aws_eks_cluster.health_test_main (expand) -->
<g id="edge49" class="edge">
<title>[root] output.eks_endpoint (expand)&#45;&gt;[root] aws_eks_cluster.health_test_main (expand)</title>
<path fill="none" stroke="black" d="M970.18,-432.57C903.41,-406.81 774.08,-356.9 700.15,-328.38"/>
<polygon fill="black" stroke="black" points="701.69,-324.83 691.1,-324.5 699.17,-331.36 701.69,-324.83"/>
</g>
<!-- [root] output.kubeconfig&#45;certificate&#45;authority&#45;data (expand) -->
<g id="node31" class="node">
<title>[root] output.kubeconfig&#45;certificate&#45;authority&#45;data (expand)</title>
<ellipse fill="none" stroke="black" cx="644.75" cy="-450" rx="215.29" ry="18"/>
<text text-anchor="middle" x="644.75" y="-443.82" font-family="Times,serif" font-size="14.00">[root] output.kubeconfig&#45;certificate&#45;authority&#45;data (expand)</text>
</g>
<!-- [root] output.kubeconfig&#45;certificate&#45;authority&#45;data (expand)&#45;&gt;[root] aws_eks_cluster.health_test_main (expand) -->
<g id="edge50" class="edge">
<title>[root] output.kubeconfig&#45;certificate&#45;authority&#45;data (expand)&#45;&gt;[root] aws_eks_cluster.health_test_main (expand)</title>
<path fill="none" stroke="black" d="M644.75,-431.59C644.75,-407.5 644.75,-363.75 644.75,-335.03"/>
<polygon fill="black" stroke="black" points="648.25,-335.11 644.75,-325.11 641.25,-335.11 648.25,-335.11"/>
</g>
<!-- [root] provider[&quot;registry.terraform.io/hashicorp/aws&quot;] (close) -->
<g id="node32" class="node">
<title>[root] provider[&quot;registry.terraform.io/hashicorp/aws&quot;] (close)</title>
<ellipse fill="none" stroke="black" cx="1506.75" cy="-450" rx="221.97" ry="18"/>
<text text-anchor="middle" x="1506.75" y="-443.82" font-family="Times,serif" font-size="14.00">[root] provider[&quot;registry.terraform.io/hashicorp/aws&quot;] (close)</text>
</g>
<!-- [root] provider[&quot;registry.terraform.io/hashicorp/aws&quot;] (close)&#45;&gt;[root] aws_cloudwatch_log_group.health_test_main (expand) -->
<g id="edge51" class="edge">
<title>[root] provider[&quot;registry.terraform.io/hashicorp/aws&quot;] (close)&#45;&gt;[root] aws_cloudwatch_log_group.health_test_main (expand)</title>
<path fill="none" stroke="black" d="M1721.1,-445.08C2244.61,-434.11 3545.75,-397.71 3545.75,-307 3545.75,-307 3545.75,-307 3545.75,-233 3545.75,-137.7 3259.74,-106.33 3079.4,-96.02"/>
<polygon fill="black" stroke="black" points="3079.67,-92.48 3069.49,-95.42 3079.28,-99.47 3079.67,-92.48"/>
</g>
<!-- [root] provider[&quot;registry.terraform.io/hashicorp/aws&quot;] (close)&#45;&gt;[root] aws_eks_node_group.health_test_main_private_app_node_group (expand) -->
<g id="edge52" class="edge">
<title>[root] provider[&quot;registry.terraform.io/hashicorp/aws&quot;] (close)&#45;&gt;[root] aws_eks_node_group.health_test_main_private_app_node_group (expand)</title>
<path fill="none" stroke="black" d="M1622.93,-434.24C1706.37,-423.64 1819.51,-409.27 1909.46,-397.84"/>
<polygon fill="black" stroke="black" points="1909.83,-401.19 1919.31,-396.46 1908.95,-394.25 1909.83,-401.19"/>
</g>
<!-- [root] provider[&quot;registry.terraform.io/hashicorp/aws&quot;] (close)&#45;&gt;[root] aws_eks_node_group.health_test_main_public_node_group (expand) -->
<g id="edge53" class="edge">
<title>[root] provider[&quot;registry.terraform.io/hashicorp/aws&quot;] (close)&#45;&gt;[root] aws_eks_node_group.health_test_main_public_node_group (expand)</title>
<path fill="none" stroke="black" d="M1674.21,-437.85C1825.43,-427.61 2054.06,-411.67 2252.75,-396 2257.47,-395.63 2262.26,-395.25 2267.09,-394.86"/>
<polygon fill="black" stroke="black" points="2267.05,-398.29 2276.73,-393.99 2266.48,-391.31 2267.05,-398.29"/>
</g>
<!-- [root] provider[&quot;registry.terraform.io/hashicorp/aws&quot;] (close)&#45;&gt;[root] aws_route_table_association.igw_public_health_test_main_0 (expand) -->
<g id="edge54" class="edge">
<title>[root] provider[&quot;registry.terraform.io/hashicorp/aws&quot;] (close)&#45;&gt;[root] aws_route_table_association.igw_public_health_test_main_0 (expand)</title>
<path fill="none" stroke="black" d="M1482.38,-431.87C1446.46,-406.62 1379.16,-359.31 1338.51,-330.73"/>
<polygon fill="black" stroke="black" points="1340.71,-327.3 1330.52,-324.41 1336.69,-333.03 1340.71,-327.3"/>
</g>
<!-- [root] provider[&quot;registry.terraform.io/hashicorp/aws&quot;] (close)&#45;&gt;[root] aws_route_table_association.igw_public_health_test_main_1 (expand) -->
<g id="edge55" class="edge">
<title>[root] provider[&quot;registry.terraform.io/hashicorp/aws&quot;] (close)&#45;&gt;[root] aws_route_table_association.igw_public_health_test_main_1 (expand)</title>
<path fill="none" stroke="black" d="M1440.09,-432.36C1335.04,-406.15 1131.34,-355.31 1018.28,-327.1"/>
<polygon fill="black" stroke="black" points="1019.18,-323.46 1008.63,-324.44 1017.48,-330.26 1019.18,-323.46"/>
</g>
<!-- [root] provider[&quot;registry.terraform.io/hashicorp/aws&quot;] (close)&#45;&gt;[root] aws_route_table_association.nat_private_health_test_main_0_0 (expand) -->
<g id="edge56" class="edge">
<title>[root] provider[&quot;registry.terraform.io/hashicorp/aws&quot;] (close)&#45;&gt;[root] aws_route_table_association.nat_private_health_test_main_0_0 (expand)</title>
<path fill="none" stroke="black" d="M1535.92,-431.7C1551.09,-422.69 1569.84,-411.57 1586.2,-401.87"/>
<polygon fill="black" stroke="black" points="1587.69,-404.46 1594.51,-396.35 1584.12,-398.44 1587.69,-404.46"/>
</g>
<!-- [root] provider[&quot;registry.terraform.io/hashicorp/aws&quot;] (close)&#45;&gt;[root] aws_route_table_association.nat_private_health_test_main_1_1 (expand) -->
<g id="edge57" class="edge">
<title>[root] provider[&quot;registry.terraform.io/hashicorp/aws&quot;] (close)&#45;&gt;[root] aws_route_table_association.nat_private_health_test_main_1_1 (expand)</title>
<path fill="none" stroke="black" d="M1335.75,-438.2C1134.46,-425.48 801.05,-404.42 590.97,-391.14"/>
<polygon fill="black" stroke="black" points="591.33,-387.6 581.13,-390.46 590.89,-394.58 591.33,-387.6"/>
</g>
<!-- [root] root -->
<g id="node33" class="node">
<title>[root] root</title>
<ellipse fill="none" stroke="black" cx="1012.75" cy="-522" rx="45.95" ry="18"/>
<text text-anchor="middle" x="1012.75" y="-515.83" font-family="Times,serif" font-size="14.00">[root] root</text>
</g>
<!-- [root] root&#45;&gt;[root] output.eks_endpoint (expand) -->
<g id="edge58" class="edge">
<title>[root] root&#45;&gt;[root] output.eks_endpoint (expand)</title>
<path fill="none" stroke="black" d="M1012.75,-503.7C1012.75,-496.24 1012.75,-487.32 1012.75,-478.97"/>
<polygon fill="black" stroke="black" points="1016.25,-479.1 1012.75,-469.1 1009.25,-479.1 1016.25,-479.1"/>
</g>
<!-- [root] root&#45;&gt;[root] output.kubeconfig&#45;certificate&#45;authority&#45;data (expand) -->
<g id="edge59" class="edge">
<title>[root] root&#45;&gt;[root] output.kubeconfig&#45;certificate&#45;authority&#45;data (expand)</title>
<path fill="none" stroke="black" d="M971.96,-513.24C916.2,-502.63 814.51,-483.29 739.24,-468.97"/>
<polygon fill="black" stroke="black" points="740.28,-465.42 729.8,-466.99 738.97,-472.3 740.28,-465.42"/>
</g>
<!-- [root] root&#45;&gt;[root] provider[&quot;registry.terraform.io/hashicorp/aws&quot;] (close) -->
<g id="edge60" class="edge">
<title>[root] root&#45;&gt;[root] provider[&quot;registry.terraform.io/hashicorp/aws&quot;] (close)</title>
<path fill="none" stroke="black" d="M1055.3,-514.97C1128.68,-504.57 1281.5,-482.92 1388.94,-467.69"/>
<polygon fill="black" stroke="black" points="1389.11,-471.06 1398.52,-466.2 1388.12,-464.13 1389.11,-471.06"/>
</g>
</g>
</svg>
