<svg version="1.1" xmlns="http://www.w3.org/2000/svg" viewBox="0 0 624.5402526855469 256.265625" width="1249.0805053710938" height="512.53125">
  <!-- svg-source:excalidraw -->
  
  <defs>
    <style class="style-fonts">
      @font-face {
        font-family: "Virgil";
        src: url("https://excalidraw.com/Virgil.woff2");
      }
      @font-face {
        font-family: "Cascadia";
        src: url("https://excalidraw.com/Cascadia.woff2");
      }
    </style>
  </defs>
  <rect x="0" y="0" width="624.5402526855469" height="256.265625" fill="#ffffff"></rect><g stroke-linecap="round" transform="translate(19.158050537109375 190.90521240234375) rotate(0 79.5 25.5)"><path d="M12.75 0 M12.75 0 C55.31 1.96, 96.39 0.07, 146.25 0 M12.75 0 C54.31 -1.69, 97.48 -0.47, 146.25 0 M146.25 0 C154.32 1.67, 158.26 3.37, 159 12.75 M146.25 0 C156.72 0.84, 160.34 5.09, 159 12.75 M159 12.75 C157.52 20.84, 157.63 34.07, 159 38.25 M159 12.75 C159.13 17.95, 158.4 23.47, 159 38.25 M159 38.25 C158.81 48.14, 154.8 52.19, 146.25 51 M159 38.25 C157.35 45.1, 154.09 52.22, 146.25 51 M146.25 51 C96.98 51.41, 48.12 52.43, 12.75 51 M146.25 51 C116.58 50.52, 84.97 49.98, 12.75 51 M12.75 51 C3.15 52.77, -0.67 46.26, 0 38.25 M12.75 51 C4.62 49.26, -1.53 45.3, 0 38.25 M0 38.25 C-1.37 31.49, 1.85 28.1, 0 12.75 M0 38.25 C0.39 27.35, -0.91 18.24, 0 12.75 M0 12.75 C0.42 3.28, 5.71 -0.8, 12.75 0 M0 12.75 C-0.3 5.35, 3.88 -0.12, 12.75 0" stroke="#1864ab" stroke-width="1" fill="none"></path></g><g transform="translate(48.84809875488281 203.90521240234375) rotate(0 49.80995178222656 12.5)"><text x="49.80995178222656" y="0" font-family="Virgil, Segoe UI Emoji" font-size="20px" fill="#1864ab" text-anchor="middle" style="white-space: pre;" direction="ltr" dominant-baseline="text-before-edge">Terraform</text></g><g stroke-linecap="round" transform="translate(219.9443359375 189.93899536132812) rotate(0 79.5 25.5)"><path d="M12.75 0 M12.75 0 C57.11 0.28, 103.39 0.42, 146.25 0 M12.75 0 C46.79 -0.09, 81.56 -1.85, 146.25 0 M146.25 0 C154.16 1.25, 160.55 4.04, 159 12.75 M146.25 0 C156.75 -1.81, 159.32 4.03, 159 12.75 M159 12.75 C157.29 21.07, 158.51 24.58, 159 38.25 M159 12.75 C159.17 19.8, 158.59 26.65, 159 38.25 M159 38.25 C158.89 46.95, 155.84 49.99, 146.25 51 M159 38.25 C160.46 45.05, 156.39 49.34, 146.25 51 M146.25 51 C95.21 52.85, 46.84 52.62, 12.75 51 M146.25 51 C118.09 50.29, 92.2 49.61, 12.75 51 M12.75 51 C3.54 49.08, -0.53 46.91, 0 38.25 M12.75 51 C3.06 48.87, -1.63 46.52, 0 38.25 M0 38.25 C0.1 32, -0.66 22.63, 0 12.75 M0 38.25 C-0.18 31.83, -0.91 24.7, 0 12.75 M0 12.75 C-0.55 6.22, 4.08 0.36, 12.75 0 M0 12.75 C1.87 4.25, 4.96 -0.57, 12.75 0" stroke="#1864ab" stroke-width="1" fill="none"></path></g><g transform="translate(244.67438507080078 202.93899536132812) rotate(0 54.76995086669922 12.5)"><text x="54.76995086669922" y="0" font-family="Virgil, Segoe UI Emoji" font-size="20px" fill="#1864ab" text-anchor="middle" style="white-space: pre;" direction="ltr" dominant-baseline="text-before-edge">main.tf.json</text></g><g stroke-linecap="round"><g transform="translate(306.3277510541286 74.36343383789062) rotate(0 1.8173049314109448 51.81671881299931)"><path d="M0.81 0.68 C1.16 17.82, 1.56 86.75, 1.75 103.65 M-0.23 -0.01 C0.51 16.72, 3.11 84.76, 3.86 101.93" stroke="#000000" stroke-width="1" fill="none"></path></g><g transform="translate(306.3277510541286 74.36343383789062) rotate(0 1.8173049314109448 51.81671881299931)"><path d="M-6.41 72.29 C-3.02 79.91, -2.61 89.65, 5.7 101.28 M-7.46 73.66 C-5.71 80.84, -1.87 88.65, 4.84 101.68" stroke="#000000" stroke-width="1" fill="none"></path></g><g transform="translate(306.3277510541286 74.36343383789062) rotate(0 1.8173049314109448 51.81671881299931)"><path d="M14.1 71.46 C12.01 79.43, 6.95 89.4, 5.7 101.28 M13.05 72.82 C9.36 80.17, 7.78 88.2, 4.84 101.68" stroke="#000000" stroke-width="1" fill="none"></path></g></g><mask></mask><g stroke-linecap="round" transform="translate(230.1295166015625 21.379791259765625) rotate(0 79.5 25.5)"><path d="M12.75 0 M12.75 0 C52.82 -1.05, 93.13 -1.03, 146.25 0 M12.75 0 C42.04 -1.85, 71.66 -2.02, 146.25 0 M146.25 0 C156.5 -0.09, 157.17 5.36, 159 12.75 M146.25 0 C154.38 1.64, 159.27 2.93, 159 12.75 M159 12.75 C160.93 22.24, 159.34 28.53, 159 38.25 M159 12.75 C158.4 23.53, 159.43 32.98, 159 38.25 M159 38.25 C160.33 47.56, 156.12 50.73, 146.25 51 M159 38.25 C161.19 48.76, 156.75 50.1, 146.25 51 M146.25 51 C111.8 49.84, 73.2 48.79, 12.75 51 M146.25 51 C103.31 50.5, 60.15 50.51, 12.75 51 M12.75 51 C3.57 49.94, -1.41 45.43, 0 38.25 M12.75 51 C6.03 49.62, -1.48 48.01, 0 38.25 M0 38.25 C1.68 30.2, -1.63 19.11, 0 12.75 M0 38.25 C0.81 33.86, -0.03 26.62, 0 12.75 M0 12.75 C1.97 2.63, 4.09 -0.03, 12.75 0 M0 12.75 C-0.01 2.96, 3.75 1.68, 12.75 0" stroke="#e67700" stroke-width="1" fill="none"></path></g><g transform="translate(271.8595504760742 34.379791259765625) rotate(0 37.76996612548828 12.5)"><text x="37.76996612548828" y="0" font-family="Virgil, Segoe UI Emoji" font-size="20px" fill="#e67700" text-anchor="middle" style="white-space: pre;" direction="ltr" dominant-baseline="text-before-edge">Jsonnet</text></g><g stroke-linecap="round" transform="translate(10 23.80517578125) rotate(0 79.5 25.5)"><path d="M12.75 0 M12.75 0 C48.11 0.38, 82.22 2.03, 146.25 0 M12.75 0 C41.18 -0.44, 68.77 -0.99, 146.25 0 M146.25 0 C154.08 -0.36, 158.44 2.89, 159 12.75 M146.25 0 C155.99 -0.99, 160.72 5.86, 159 12.75 M159 12.75 C160.44 20.49, 160.3 25.89, 159 38.25 M159 12.75 C159.07 19.55, 158.35 27.16, 159 38.25 M159 38.25 C160.39 46.41, 156.43 49.83, 146.25 51 M159 38.25 C157.29 45.7, 153.17 51.43, 146.25 51 M146.25 51 C115.4 52.68, 87.29 52.76, 12.75 51 M146.25 51 C94.99 50.32, 43.94 51.77, 12.75 51 M12.75 51 C5.77 50.84, -0.36 48.07, 0 38.25 M12.75 51 C4.23 50.84, 1.86 44.74, 0 38.25 M0 38.25 C0.66 29.67, 1.7 17.43, 0 12.75 M0 38.25 C0.24 28.77, -0.88 21.32, 0 12.75 M0 12.75 C-1.52 5.68, 3.72 -0.34, 12.75 0 M0 12.75 C-1.58 6.21, 2.25 0.36, 12.75 0" stroke="#087f5b" stroke-width="1" fill="none"></path></g><g transform="translate(61.740020751953125 36.80517578125) rotate(0 27.759979248046875 12.5)"><text x="27.759979248046875" y="0" font-family="Virgil, Segoe UI Emoji" font-size="20px" fill="#087f5b" text-anchor="middle" style="white-space: pre;" direction="ltr" dominant-baseline="text-before-edge">Bazel</text></g><g stroke-linecap="round"><g transform="translate(172.38803100585938 46.55365666154006) rotate(0 27.939750740802936 0.6691587468670264)"><path d="M0.63 0.07 C9.94 0.44, 46.98 0.99, 56.37 1.05 M-0.49 -0.94 C8.65 -0.31, 46.12 1.92, 55.67 2.27" stroke="#000000" stroke-width="1" fill="none"></path></g><g transform="translate(172.38803100585938 46.55365666154006) rotate(0 27.939750740802936 0.6691587468670264)"><path d="M29.07 11.3 C37.2 9.41, 45.42 3.93, 56.69 3.26 M29.7 9.86 C39.3 6.74, 48.97 3.84, 56.29 3.07" stroke="#000000" stroke-width="1" fill="none"></path></g><g transform="translate(172.38803100585938 46.55365666154006) rotate(0 27.939750740802936 0.6691587468670264)"><path d="M30.03 -7.8 C37.64 -3.13, 45.54 -2.06, 56.69 3.26 M30.66 -9.25 C39.95 -4.92, 49.25 -0.37, 56.29 3.07" stroke="#000000" stroke-width="1" fill="none"></path></g></g><mask></mask><g stroke-linecap="round"><g transform="translate(184.66250610351562 213.0255126953125) rotate(0 13.472847949075515 0.16616060533743848)"><path d="M0.15 -0.89 C4.88 -1.09, 23.56 -0.48, 28.18 -0.36 M-1.23 1.26 C3.34 1.15, 22.4 1.02, 27.07 0.98" stroke="#1864ab" stroke-width="1" fill="none"></path></g></g><mask></mask><g stroke-linecap="round"><g transform="translate(199.15719604492188 197.22119140625) rotate(0 -0.4327850319444906 15.6925147818867)"><path d="M0.68 0.26 C0.35 5.38, -1.4 25.76, -1.55 30.94 M-0.42 -0.65 C-0.43 4.58, 0.66 26.52, 0.6 32.03" stroke="#1864ab" stroke-width="1" fill="none"></path></g></g><mask></mask><g stroke-linecap="round"><g transform="translate(394.0173034667969 212.91912841796875) rotate(0 38.0857556418656 0.3502738894733852)"><path d="M-0.19 0.34 C12.62 0.7, 64.9 1.39, 77.92 1.31 M-1.75 -0.53 C10.78 -0.46, 63.64 -0.74, 76.75 -0.54" stroke="#1864ab" stroke-width="1" fill="none"></path></g><g transform="translate(394.0173034667969 212.91912841796875) rotate(0 38.0857556418656 0.3502738894733852)"><path d="M49.09 8.93 C60.41 5.06, 68.92 2.93, 77.86 -1.84 M48.03 10.25 C59.98 5.49, 69.33 1.77, 76.44 0.42" stroke="#1864ab" stroke-width="1" fill="none"></path></g><g transform="translate(394.0173034667969 212.91912841796875) rotate(0 38.0857556418656 0.3502738894733852)"><path d="M49.16 -11.59 C60.31 -7.51, 68.8 -1.69, 77.86 -1.84 M48.1 -10.27 C60.07 -7.19, 69.39 -3.07, 76.44 0.42" stroke="#1864ab" stroke-width="1" fill="none"></path></g></g><mask></mask><g stroke-linecap="round" transform="translate(495.2582702636719 159.8658447265625) rotate(0 59.6409912109375 43.19989013671875)"><path d="M21.6 0 M21.6 0 C52.45 0.79, 83.51 1.93, 97.68 0 M21.6 0 C40.65 -0.48, 59.36 0.13, 97.68 0 M97.68 0 C111.5 -1.2, 121.21 5.86, 119.28 21.6 M97.68 0 C112.21 -1.51, 120.1 8.23, 119.28 21.6 M119.28 21.6 C119.3 35.9, 118.01 55.55, 119.28 64.8 M119.28 21.6 C120.43 32.98, 119.3 43.45, 119.28 64.8 M119.28 64.8 C119.46 79.48, 113.65 87.3, 97.68 86.4 M119.28 64.8 C117.22 81.05, 112.86 86.88, 97.68 86.4 M97.68 86.4 C74.72 85.27, 53.37 86.09, 21.6 86.4 M97.68 86.4 C69.64 86.44, 40.47 86.18, 21.6 86.4 M21.6 86.4 C6.54 87.66, 0.57 79.11, 0 64.8 M21.6 86.4 C5.38 87.26, -1.84 79.93, 0 64.8 M0 64.8 C-0.29 53.7, 0.18 37.83, 0 21.6 M0 64.8 C0.08 56.02, 0.2 46.33, 0 21.6 M0 21.6 C0.91 8.23, 5.59 0.9, 21.6 0 M0 21.6 C2.28 5.84, 6.4 1.6, 21.6 0" stroke="#1864ab" stroke-width="1" fill="none"></path></g><g transform="translate(534.7992706298828 190.56573486328125) rotate(0 20.099990844726562 12.5)"><text x="20.099990844726562" y="0" font-family="Virgil, Segoe UI Emoji" font-size="20px" fill="#1864ab" text-anchor="middle" style="white-space: pre;" direction="ltr" dominant-baseline="text-before-edge">AWS</text></g><g transform="translate(232.92117309570312 113.23965454101562) rotate(0 33.12995910644531 12.5)"><text x="0" y="0" font-family="Virgil, Segoe UI Emoji" font-size="20px" fill="#1864ab" text-anchor="start" style="white-space: pre;" direction="ltr" dominant-baseline="text-before-edge">output</text></g><g transform="translate(180.40963745117188 10) rotate(0 21.269973754882812 12.5)"><text x="0" y="0" font-family="Virgil, Segoe UI Emoji" font-size="20px" fill="#1864ab" text-anchor="start" style="white-space: pre;" direction="ltr" dominant-baseline="text-before-edge">build</text></g><g transform="translate(403.6829376220703 173.5662078857422) rotate(0 28.949966430664062 12.5)"><text x="0" y="0" font-family="Virgil, Segoe UI Emoji" font-size="20px" fill="#1864ab" text-anchor="start" style="white-space: pre;" direction="ltr" dominant-baseline="text-before-edge">deploy</text></g></svg>